<svg xmlns="http://www.w3.org/2000/svg" fill="none" viewBox="0 0 222 65">
  <path fill="#7171FF" d="M210.933 31.086c-1.126.915-2.706 1.37-4.738 1.37h-5.46l1.908-9.325h4.82c1.624 0 2.89.314 3.798.938.906.624 1.359 1.623 1.359 2.995 0 1.767-.562 3.107-1.687 4.022Zm7.62-12.39C216.254 16.9 212.963 16 208.682 16h-13.883l-6.565 32h9.285l1.741-8.365h6.513c3.314 0 6.182-.55 8.605-1.646 2.423-1.097 4.299-2.652 5.63-4.664 1.327-2.01 1.992-4.356 1.992-7.039 0-3.26-1.149-5.79-3.447-7.59ZM182.945 16l-7.287 15.16-7.95-14.396-8.006 14.209-2.471-7.92L152 31.704l5.146 16.191 10.562-16.922L176.439 48l14.615-32h-8.109Z"/>
  <path fill="#1C1C1C" d="M91.358 22.343h9.023c4.273 0 7.953-3.071 8.797-7.341h-25.63L77 48.373h9.26l2.24-11.441h7.108c4.249 0 7.909-3.051 8.752-7.295H89.93l1.428-7.295Zm20.431-.46-5.184 26.491h8.886L122.413 13c-5.166 0-9.614 3.719-10.624 8.883Zm37.035.604c-2.835 0-5.462 1.518-6.919 3.998l-6.953 11.841-2.114-10.511c-.624-3.102-3.302-5.328-6.407-5.328h-3.457l4.493 20.576a4.418 4.418 0 0 0 2.839 3.236L123.461 58h8.285l10.275-17.228L153 22.487h-4.176Z"/>
  <path fill="#7171FF" d="M47.76 24.845 33.256 47.492c-.786 1.466-2.982 1.112-3.269-.527l-1.35-7.295a7.773 7.773 0 0 1 3.211-7.798.628.628 0 0 0-.573-1.104 7.652 7.652 0 0 1-8.255-1.999l-3.429-3.717c-1.035-1.123-.239-2.94 1.289-2.94h25.384c1.404 0 2.252 1.551 1.496 2.733Zm-31.41 15.12c-.25 0-.498-.01-.745-.024a12.163 12.163 0 0 1 10.718-6.407c.25 0 .499.01.746.026a12.165 12.165 0 0 1-10.719 6.406ZM32.5 0C14.552 0 0 14.55 0 32.5S14.552 65 32.5 65C50.45 65 65 50.45 65 32.5S50.45 0 32.5 0Z"/>
</svg>
